<mxfile host="app.diagrams.net" modified="2021-08-18T04:33:48.160Z" agent="5.0 (Windows NT 10.0; Win64; x64) AppleWebKit/537.36 (KHTML, like Gecko) Chrome/92.0.4515.131 Safari/537.36" etag="DTc2EMcy3WXzAA2ykxVM" version="14.9.7" type="github">
  <diagram id="C5RBs43oDa-KdzZeNtuy" name="Page-1">
    <mxGraphModel dx="1422" dy="754" grid="1" gridSize="10" guides="1" tooltips="1" connect="1" arrows="1" fold="1" page="1" pageScale="1" pageWidth="827" pageHeight="1169" math="0" shadow="0">
      <root>
        <mxCell id="WIyWlLk6GJQsqaUBKTNV-0" />
        <mxCell id="WIyWlLk6GJQsqaUBKTNV-1" parent="WIyWlLk6GJQsqaUBKTNV-0" />
        <mxCell id="bJTvvFOX0tKF-C_1A1X7-16" value="" style="edgeStyle=orthogonalEdgeStyle;rounded=0;orthogonalLoop=1;jettySize=auto;html=1;" edge="1" parent="WIyWlLk6GJQsqaUBKTNV-1" source="WIyWlLk6GJQsqaUBKTNV-3" target="bJTvvFOX0tKF-C_1A1X7-0">
          <mxGeometry relative="1" as="geometry" />
        </mxCell>
        <mxCell id="WIyWlLk6GJQsqaUBKTNV-3" value="Halaman Beranda" style="rounded=1;whiteSpace=wrap;html=1;fontSize=12;glass=0;strokeWidth=1;shadow=0;" parent="WIyWlLk6GJQsqaUBKTNV-1" vertex="1">
          <mxGeometry x="160" y="80" width="120" height="40" as="geometry" />
        </mxCell>
        <mxCell id="bJTvvFOX0tKF-C_1A1X7-11" value="" style="edgeStyle=orthogonalEdgeStyle;rounded=0;orthogonalLoop=1;jettySize=auto;html=1;" edge="1" parent="WIyWlLk6GJQsqaUBKTNV-1" source="bJTvvFOX0tKF-C_1A1X7-0" target="bJTvvFOX0tKF-C_1A1X7-10">
          <mxGeometry relative="1" as="geometry" />
        </mxCell>
        <mxCell id="bJTvvFOX0tKF-C_1A1X7-0" value="Klik tombol Login" style="rounded=1;whiteSpace=wrap;html=1;fontSize=12;glass=0;strokeWidth=1;shadow=0;" vertex="1" parent="WIyWlLk6GJQsqaUBKTNV-1">
          <mxGeometry x="160" y="160" width="120" height="40" as="geometry" />
        </mxCell>
        <mxCell id="bJTvvFOX0tKF-C_1A1X7-20" value="" style="edgeStyle=orthogonalEdgeStyle;rounded=0;orthogonalLoop=1;jettySize=auto;html=1;" edge="1" parent="WIyWlLk6GJQsqaUBKTNV-1" source="bJTvvFOX0tKF-C_1A1X7-10" target="bJTvvFOX0tKF-C_1A1X7-19">
          <mxGeometry relative="1" as="geometry">
            <Array as="points">
              <mxPoint x="420" y="260" />
            </Array>
          </mxGeometry>
        </mxCell>
        <mxCell id="bJTvvFOX0tKF-C_1A1X7-10" value="Menampilkan modal Login" style="rounded=1;whiteSpace=wrap;html=1;fontSize=12;glass=0;strokeWidth=1;shadow=0;" vertex="1" parent="WIyWlLk6GJQsqaUBKTNV-1">
          <mxGeometry x="360" y="160" width="120" height="40" as="geometry" />
        </mxCell>
        <mxCell id="bJTvvFOX0tKF-C_1A1X7-22" value="" style="edgeStyle=orthogonalEdgeStyle;rounded=0;orthogonalLoop=1;jettySize=auto;html=1;" edge="1" parent="WIyWlLk6GJQsqaUBKTNV-1" source="bJTvvFOX0tKF-C_1A1X7-19" target="bJTvvFOX0tKF-C_1A1X7-21">
          <mxGeometry relative="1" as="geometry">
            <Array as="points">
              <mxPoint x="220" y="350" />
            </Array>
          </mxGeometry>
        </mxCell>
        <mxCell id="bJTvvFOX0tKF-C_1A1X7-19" value="Masukkan Username, Password, dan centang REcaptcha" style="rounded=1;whiteSpace=wrap;html=1;fontSize=12;glass=0;strokeWidth=1;shadow=0;" vertex="1" parent="WIyWlLk6GJQsqaUBKTNV-1">
          <mxGeometry x="160" y="230" width="120" height="60" as="geometry" />
        </mxCell>
        <mxCell id="bJTvvFOX0tKF-C_1A1X7-45" value="" style="edgeStyle=orthogonalEdgeStyle;rounded=0;orthogonalLoop=1;jettySize=auto;html=1;" edge="1" parent="WIyWlLk6GJQsqaUBKTNV-1" source="bJTvvFOX0tKF-C_1A1X7-21" target="bJTvvFOX0tKF-C_1A1X7-32">
          <mxGeometry relative="1" as="geometry" />
        </mxCell>
        <mxCell id="bJTvvFOX0tKF-C_1A1X7-21" value="Login" style="rhombus;whiteSpace=wrap;html=1;rounded=1;shadow=0;strokeWidth=1;glass=0;" vertex="1" parent="WIyWlLk6GJQsqaUBKTNV-1">
          <mxGeometry x="380" y="310" width="80" height="80" as="geometry" />
        </mxCell>
        <mxCell id="bJTvvFOX0tKF-C_1A1X7-43" value="" style="edgeStyle=orthogonalEdgeStyle;rounded=0;orthogonalLoop=1;jettySize=auto;html=1;" edge="1" parent="WIyWlLk6GJQsqaUBKTNV-1" source="bJTvvFOX0tKF-C_1A1X7-30" target="bJTvvFOX0tKF-C_1A1X7-42">
          <mxGeometry relative="1" as="geometry" />
        </mxCell>
        <mxCell id="bJTvvFOX0tKF-C_1A1X7-30" value="Dashboad Admin" style="whiteSpace=wrap;html=1;rounded=1;shadow=0;strokeWidth=1;glass=0;" vertex="1" parent="WIyWlLk6GJQsqaUBKTNV-1">
          <mxGeometry x="360" y="480" width="120" height="60" as="geometry" />
        </mxCell>
        <mxCell id="bJTvvFOX0tKF-C_1A1X7-46" value="" style="edgeStyle=orthogonalEdgeStyle;rounded=0;orthogonalLoop=1;jettySize=auto;html=1;" edge="1" parent="WIyWlLk6GJQsqaUBKTNV-1" source="bJTvvFOX0tKF-C_1A1X7-32" target="bJTvvFOX0tKF-C_1A1X7-30">
          <mxGeometry relative="1" as="geometry" />
        </mxCell>
        <mxCell id="bJTvvFOX0tKF-C_1A1X7-32" value="Ya" style="text;html=1;align=center;verticalAlign=middle;resizable=0;points=[];autosize=1;strokeColor=none;" vertex="1" parent="WIyWlLk6GJQsqaUBKTNV-1">
          <mxGeometry x="405" y="430" width="30" height="20" as="geometry" />
        </mxCell>
        <mxCell id="bJTvvFOX0tKF-C_1A1X7-38" value="" style="edgeStyle=orthogonalEdgeStyle;rounded=0;orthogonalLoop=1;jettySize=auto;html=1;" edge="1" parent="WIyWlLk6GJQsqaUBKTNV-1" source="bJTvvFOX0tKF-C_1A1X7-33">
          <mxGeometry relative="1" as="geometry">
            <mxPoint x="490" y="180" as="targetPoint" />
            <Array as="points">
              <mxPoint x="530" y="180" />
            </Array>
          </mxGeometry>
        </mxCell>
        <mxCell id="bJTvvFOX0tKF-C_1A1X7-41" value="" style="edgeStyle=orthogonalEdgeStyle;rounded=0;orthogonalLoop=1;jettySize=auto;html=1;entryX=1;entryY=0.5;entryDx=0;entryDy=0;" edge="1" parent="WIyWlLk6GJQsqaUBKTNV-1" source="bJTvvFOX0tKF-C_1A1X7-33" target="bJTvvFOX0tKF-C_1A1X7-21">
          <mxGeometry relative="1" as="geometry">
            <Array as="points">
              <mxPoint x="530" y="350" />
            </Array>
          </mxGeometry>
        </mxCell>
        <mxCell id="bJTvvFOX0tKF-C_1A1X7-33" value="Tidak" style="text;html=1;align=center;verticalAlign=middle;resizable=0;points=[];autosize=1;strokeColor=none;" vertex="1" parent="WIyWlLk6GJQsqaUBKTNV-1">
          <mxGeometry x="510" y="260" width="40" height="20" as="geometry" />
        </mxCell>
        <mxCell id="bJTvvFOX0tKF-C_1A1X7-42" value="" style="ellipse;whiteSpace=wrap;html=1;rounded=1;shadow=0;strokeWidth=1;glass=0;" vertex="1" parent="WIyWlLk6GJQsqaUBKTNV-1">
          <mxGeometry x="360" y="620" width="120" height="60" as="geometry" />
        </mxCell>
      </root>
    </mxGraphModel>
  </diagram>
</mxfile>
